G04 ================== begin FILE IDENTIFICATION RECORD ==================*
G04 Layout Name:  C:/Users/user/Desktop/workspace/ex2_rlc/allegro/ex2_rlc.brd*
G04 Film Name:    DrillDraw*
G04 File Format:  Gerber RS274X*
G04 File Origin:  Cadence Allegro 17.2-S038*
G04 Origin Date:  Thu Jul 11 11:36:05 2019*
G04 *
G04 Layer:  MANUFACTURING/NCLEGEND-1-2*
G04 Layer:  BOARD GEOMETRY/OUTLINE*
G04 Layer:  BOARD GEOMETRY/DESIGN_OUTLINE*
G04 *
G04 Offset:    (0.000 0.000)*
G04 Mirror:    No*
G04 Mode:      Positive*
G04 Rotation:  0*
G04 FullContactRelief:  No*
G04 UndefLineWidth:     0.100*
G04 ================== end FILE IDENTIFICATION RECORD ====================*
%FSLAX25Y25*MOMM*%
%IR0*IPPOS*OFA0.00000B0.00000*MIA0B0*SFA1.00000B1.00000*%
%AMMACRO12*
1,1,.1,-.508,.3175*
20,1,.1,-.508,.3175,-.500282,.405713,0.0*
1,1,.1,-.500282,.405713*
20,1,.1,-.500282,.405713,-.477364,.491246,0.0*
1,1,.1,-.477364,.491246*
20,1,.1,-.477364,.491246,-.439941,.5715,0.0*
1,1,.1,-.439941,.5715*
20,1,.1,-.439941,.5715,-.389151,.644036,0.0*
1,1,.1,-.389151,.644036*
20,1,.1,-.389151,.644036,-.326536,.706651,0.0*
1,1,.1,-.326536,.706651*
20,1,.1,-.326536,.706651,-.254,.757441,0.0*
1,1,.1,-.254,.757441*
20,1,.1,-.254,.757441,-.173746,.794864,0.0*
1,1,.1,-.173746,.794864*
20,1,.1,-.173746,.794864,-.088213,.817782,0.0*
1,1,.1,-.088213,.817782*
20,1,.1,-.088213,.817782,0.0,.8255,0.0*
1,1,.1,0.0,.8255*
20,1,.1,0.0,.8255,.088213,.817782,0.0*
1,1,.1,.088213,.817782*
20,1,.1,.088213,.817782,.173746,.794864,0.0*
1,1,.1,.173746,.794864*
20,1,.1,.173746,.794864,.254,.757441,0.0*
1,1,.1,.254,.757441*
20,1,.1,.254,.757441,.326536,.706651,0.0*
1,1,.1,.326536,.706651*
20,1,.1,.326536,.706651,.389151,.644036,0.0*
1,1,.1,.389151,.644036*
20,1,.1,.389151,.644036,.439941,.5715,0.0*
1,1,.1,.439941,.5715*
20,1,.1,.439941,.5715,.477364,.491246,0.0*
1,1,.1,.477364,.491246*
20,1,.1,.477364,.491246,.500282,.405713,0.0*
1,1,.1,.500282,.405713*
20,1,.1,.500282,.405713,.508,.3175,0.0*
1,1,.1,.508,.3175*
20,1,.1,.508,.3175,.508,-.3175,0.0*
1,1,.1,.508,-.3175*
20,1,.1,.508,-.3175,.500282,-.405713,0.0*
1,1,.1,.500282,-.405713*
20,1,.1,.500282,-.405713,.477364,-.491246,0.0*
1,1,.1,.477364,-.491246*
20,1,.1,.477364,-.491246,.439941,-.5715,0.0*
1,1,.1,.439941,-.5715*
20,1,.1,.439941,-.5715,.389151,-.644036,0.0*
1,1,.1,.389151,-.644036*
20,1,.1,.389151,-.644036,.326536,-.706651,0.0*
1,1,.1,.326536,-.706651*
20,1,.1,.326536,-.706651,.254,-.757441,0.0*
1,1,.1,.254,-.757441*
20,1,.1,.254,-.757441,.173746,-.794864,0.0*
1,1,.1,.173746,-.794864*
20,1,.1,.173746,-.794864,.088213,-.817782,0.0*
1,1,.1,.088213,-.817782*
20,1,.1,.088213,-.817782,0.0,-.8255,0.0*
1,1,.1,0.0,-.8255*
20,1,.1,0.0,-.8255,-.088213,-.817782,0.0*
1,1,.1,-.088213,-.817782*
20,1,.1,-.088213,-.817782,-.173746,-.794864,0.0*
1,1,.1,-.173746,-.794864*
20,1,.1,-.173746,-.794864,-.254,-.757441,0.0*
1,1,.1,-.254,-.757441*
20,1,.1,-.254,-.757441,-.326536,-.706651,0.0*
1,1,.1,-.326536,-.706651*
20,1,.1,-.326536,-.706651,-.389151,-.644036,0.0*
1,1,.1,-.389151,-.644036*
20,1,.1,-.389151,-.644036,-.439941,-.5715,0.0*
1,1,.1,-.439941,-.5715*
20,1,.1,-.439941,-.5715,-.477364,-.491246,0.0*
1,1,.1,-.477364,-.491246*
20,1,.1,-.477364,-.491246,-.500282,-.405713,0.0*
1,1,.1,-.500282,-.405713*
20,1,.1,-.500282,-.405713,-.508,-.3175,0.0*
1,1,.1,-.508,-.3175*
20,1,.1,-.508,-.3175,-.508,.3175,0.0*
1,1,.1,-.508,.3175*
%
%ADD12MACRO12*%
%AMMACRO11*
1,1,.1,.635,0.0*
20,1,.1,.635,0.0,.3175,.549926,0.0*
1,1,.1,.3175,.549926*
20,1,.1,.3175,.549926,-.3175,.549926,0.0*
1,1,.1,-.3175,.549926*
20,1,.1,-.3175,.549926,-.635,0.0,0.0*
1,1,.1,-.635,0.0*
20,1,.1,-.635,0.0,-.3175,-.549926,0.0*
1,1,.1,-.3175,-.549926*
20,1,.1,-.3175,-.549926,.3175,-.549926,0.0*
1,1,.1,.3175,-.549926*
20,1,.1,.3175,-.549926,.635,0.0,0.0*
1,1,.1,.635,0.0*
%
%ADD11MACRO11*%
%AMMACRO10*
1,1,.1,-.666,-.952*
20,1,.1,-.666,-.952,.667,.953,0.0*
1,1,.1,.667,.953*
1,1,.1,-.666,.953*
20,1,.1,-.666,.953,.667,-.952,0.0*
1,1,.1,.667,-.952*
%
%ADD10MACRO10*%
%ADD13C,.1*%
G75*
%LPD*%
G75*
G54D10*
X508000Y508000D03*
Y4483100D03*
X6477000Y571500D03*
Y4508500D03*
X8698000Y556500D03*
G54D11*
X1498600Y3120400D03*
Y2866400D03*
X2794000Y3810000D03*
Y3556000D03*
X8698000Y1826500D03*
G54D12*
X2794000Y1016000D03*
X3810000D03*
X4572000Y3302000D03*
Y4318000D03*
X8698000Y1191500D03*
G54D13*
G01X0Y0D02*
Y5000000D01*
X7000000D01*
Y0D01*
X0D01*
G01X7556500Y239000D02*
Y4064000D01*
X20152400D01*
Y239000D01*
X7556500D01*
G01Y874000D02*
X20152400D01*
G01X7556500Y1509000D02*
X20152400D01*
G01X7835900Y2302800D02*
Y2620300D01*
X7985500D01*
G01X7930400Y2466800D02*
X7835900D01*
G01X8178400Y2620300D02*
X8272800D01*
G01X8225600D02*
Y2302800D01*
G01X8178400D02*
X8272800D01*
G01X8564100Y2461500D02*
X8642900D01*
Y2366300D01*
X8619200Y2334500D01*
X8591700Y2313400D01*
X8552300Y2302800D01*
X8512900Y2313400D01*
X8485400Y2334500D01*
X8461800Y2366300D01*
X8446000Y2403300D01*
X8438100Y2445700D01*
Y2482700D01*
X8446000Y2514500D01*
X8461800Y2551500D01*
X8485400Y2583300D01*
X8509000Y2604400D01*
X8540500Y2620300D01*
X8568100D01*
X8599500Y2609700D01*
X8623200Y2588500D01*
G01X8768800Y2620300D02*
Y2392800D01*
X8784500Y2345100D01*
X8816000Y2313400D01*
X8855400Y2302800D01*
X8894800Y2313400D01*
X8926300Y2345100D01*
X8942000Y2392800D01*
Y2620300D01*
G01X9091600Y2302800D02*
Y2620300D01*
X9190000D01*
X9221500Y2604400D01*
X9241200Y2583300D01*
X9249000Y2540900D01*
X9241200Y2498600D01*
X9217500Y2472100D01*
X9190000Y2456300D01*
X9091600D01*
G01X9190000D02*
X9249000Y2302800D01*
G01X9563900D02*
X9406500D01*
Y2620300D01*
X9563900D01*
G01X9500900Y2466800D02*
X9406500D01*
G01X7556500Y2144000D02*
X20152400D01*
G01X7556500Y2779000D02*
X20152400D01*
G01X7556500Y3414000D02*
X20152400D01*
G01X9839500Y2779000D02*
Y239000D01*
G01X9504800Y2937800D02*
X9603200Y3255300D01*
X9701600Y2937800D01*
G01X9666200Y3048900D02*
X9540200D01*
G01X9839400Y3255300D02*
Y2937800D01*
X9996800D01*
G01X10154300Y3255300D02*
Y2937800D01*
X10311700D01*
G01X10776200Y3255300D02*
Y3027800D01*
X10791900Y2980100D01*
X10823400Y2948400D01*
X10862800Y2937800D01*
X10902200Y2948400D01*
X10933700Y2980100D01*
X10949400Y3027800D01*
Y3255300D01*
G01X11087200Y2937800D02*
Y3255300D01*
X11268200Y2937800D01*
Y3255300D01*
G01X11445400D02*
X11539800D01*
G01X11492600D02*
Y2937800D01*
G01X11445400D02*
X11539800D01*
G01X11807500Y3255300D02*
Y2937800D01*
G01X11717000Y3255300D02*
X11898000D01*
G01X12039700Y2980100D02*
X12071200Y2953700D01*
X12106700Y2937800D01*
X12138100D01*
X12169600Y2953700D01*
X12193300Y2980100D01*
X12205100Y3017200D01*
X12197200Y3054200D01*
X12177500Y3086000D01*
X12142100Y3107100D01*
X12094800Y3117700D01*
X12067300Y3138900D01*
X12055500Y3175900D01*
X12063400Y3213000D01*
X12083000Y3239400D01*
X12110600Y3255300D01*
X12138100D01*
X12165700Y3244700D01*
X12189300Y3218300D01*
G01X12653800Y2937800D02*
X12752200Y3255300D01*
X12850600Y2937800D01*
G01X12815200Y3048900D02*
X12689200D01*
G01X12988400Y2937800D02*
Y3255300D01*
X13086800D01*
X13118300Y3239400D01*
X13138000Y3218300D01*
X13145800Y3175900D01*
X13138000Y3133600D01*
X13114300Y3107100D01*
X13086800Y3091300D01*
X12988400D01*
G01X13086800D02*
X13145800Y2937800D01*
G01X13460700D02*
X13303300D01*
Y3255300D01*
X13460700D01*
G01X13397700Y3101800D02*
X13303300D01*
G01X13964600Y3255300D02*
X14059000D01*
G01X14011800D02*
Y2937800D01*
G01X13964600D02*
X14059000D01*
G01X14236200D02*
Y3255300D01*
X14417200Y2937800D01*
Y3255300D01*
G01X14854100Y2937800D02*
Y3255300D01*
X14956500Y2990700D01*
X15058900Y3255300D01*
Y2937800D01*
G01X15224200Y3255300D02*
X15318600D01*
G01X15271400D02*
Y2937800D01*
G01X15224200D02*
X15318600D01*
G01X15507600Y3255300D02*
Y2937800D01*
X15665000D01*
G01X15822500Y3255300D02*
Y2937800D01*
X15979900D01*
G01X16168900Y3255300D02*
X16263300D01*
G01X16216100D02*
Y2937800D01*
G01X16168900D02*
X16263300D01*
G01X16428600D02*
Y3255300D01*
X16531000Y2990700D01*
X16633400Y3255300D01*
Y2937800D01*
G01X16924600D02*
X16767200D01*
Y3255300D01*
X16924600D01*
G01X16861600Y3101800D02*
X16767200D01*
G01X17160800Y3255300D02*
Y2937800D01*
G01X17070300Y3255300D02*
X17251300D01*
G01X17554400Y2937800D02*
X17397000D01*
Y3255300D01*
X17554400D01*
G01X17491400Y3101800D02*
X17397000D01*
G01X17711900Y2937800D02*
Y3255300D01*
X17810300D01*
X17841800Y3239400D01*
X17861500Y3218300D01*
X17869300Y3175900D01*
X17861500Y3133600D01*
X17837800Y3107100D01*
X17810300Y3091300D01*
X17711900D01*
G01X17810300D02*
X17869300Y2937800D01*
G01X18022800Y2980100D02*
X18054300Y2953700D01*
X18089800Y2937800D01*
X18121200D01*
X18152700Y2953700D01*
X18176400Y2980100D01*
X18188200Y3017200D01*
X18180300Y3054200D01*
X18160600Y3086000D01*
X18125200Y3107100D01*
X18077900Y3117700D01*
X18050400Y3138900D01*
X18038600Y3175900D01*
X18046500Y3213000D01*
X18066100Y3239400D01*
X18093700Y3255300D01*
X18121200D01*
X18148800Y3244700D01*
X18172400Y3218300D01*
G01X9831500Y3587800D02*
Y3905300D01*
X9910200D01*
X9941700Y3889400D01*
X9965300Y3868300D01*
X9985000Y3836500D01*
X10000800Y3799500D01*
X10004700Y3746500D01*
X10000800Y3693600D01*
X9985000Y3656600D01*
X9965300Y3624800D01*
X9941700Y3603700D01*
X9910200Y3587800D01*
X9831500D01*
G01X10154300D02*
Y3905300D01*
X10252700D01*
X10284200Y3889400D01*
X10303900Y3868300D01*
X10311700Y3825900D01*
X10303900Y3783600D01*
X10280200Y3757100D01*
X10252700Y3741300D01*
X10154300D01*
G01X10252700D02*
X10311700Y3587800D01*
G01X10500700Y3905300D02*
X10595100D01*
G01X10547900D02*
Y3587800D01*
G01X10500700D02*
X10595100D01*
G01X10784100Y3905300D02*
Y3587800D01*
X10941500D01*
G01X11099000Y3905300D02*
Y3587800D01*
X11256400D01*
G01X11894100Y3878800D02*
X11870500Y3894700D01*
X11842900Y3905300D01*
X11811400D01*
X11776000Y3889400D01*
X11748500Y3863000D01*
X11728800Y3831200D01*
X11713000Y3778300D01*
X11709100Y3730700D01*
X11717000Y3683000D01*
X11728800Y3651300D01*
X11752400Y3619500D01*
X11779900Y3598400D01*
X11807500Y3587800D01*
X11835100D01*
X11862600Y3598400D01*
X11886200Y3614300D01*
X11905900Y3635400D01*
G01X12039700Y3587800D02*
Y3905300D01*
G01X12205100D02*
Y3587800D01*
G01Y3746500D02*
X12039700D01*
G01X12338900Y3587800D02*
X12437300Y3905300D01*
X12535700Y3587800D01*
G01X12500300Y3698900D02*
X12374300D01*
G01X12673500Y3587800D02*
Y3905300D01*
X12771900D01*
X12803400Y3889400D01*
X12823100Y3868300D01*
X12830900Y3825900D01*
X12823100Y3783600D01*
X12799400Y3757100D01*
X12771900Y3741300D01*
X12673500D01*
G01X12771900D02*
X12830900Y3587800D01*
G01X13067100Y3905300D02*
Y3587800D01*
G01X12976600Y3905300D02*
X13157600D01*
G01X13382000Y3577200D02*
X13374100Y3582500D01*
Y3593100D01*
X13382000Y3598400D01*
X13389900Y3593100D01*
Y3582500D01*
X13382000Y3577200D01*
G01Y3720100D02*
X13374100Y3725400D01*
Y3736000D01*
X13382000Y3741300D01*
X13389900Y3736000D01*
Y3725400D01*
X13382000Y3720100D01*
G01X14011800Y3905300D02*
Y3587800D01*
G01X13921300Y3905300D02*
X14102300D01*
G01X14326700Y3587800D02*
X14295200Y3593100D01*
X14267700Y3614300D01*
X14244000Y3646000D01*
X14228300Y3683000D01*
X14220400Y3725400D01*
Y3767700D01*
X14228300Y3810100D01*
X14244000Y3847100D01*
X14267700Y3878800D01*
X14295200Y3900000D01*
X14326700Y3905300D01*
X14358200Y3900000D01*
X14385700Y3878800D01*
X14409400Y3847100D01*
X14425100Y3810100D01*
X14433000Y3767700D01*
Y3725400D01*
X14425100Y3683000D01*
X14409400Y3646000D01*
X14385700Y3614300D01*
X14358200Y3593100D01*
X14326700Y3587800D01*
G01X14562900D02*
Y3905300D01*
X14657300D01*
X14688800Y3889400D01*
X14712500Y3852400D01*
X14720300Y3810100D01*
X14712500Y3767700D01*
X14692800Y3736000D01*
X14657300Y3720100D01*
X14562900D01*
G01X15271400Y3905300D02*
Y3587800D01*
G01X15216300Y3799500D02*
X15326500D01*
G01X15586300Y3587800D02*
X15562700Y3593100D01*
X15539100Y3614300D01*
X15523300Y3651300D01*
X15515400Y3693600D01*
X15523300Y3736000D01*
X15539100Y3773000D01*
X15562700Y3794200D01*
X15586300Y3799500D01*
X15609900Y3794200D01*
X15633500Y3773000D01*
X15649300Y3736000D01*
X15653200Y3693600D01*
X15649300Y3651300D01*
X15633500Y3614300D01*
X15609900Y3593100D01*
X15586300Y3587800D01*
G01X16247600Y3757100D02*
X16263300Y3773000D01*
X16275100Y3799500D01*
X16283000Y3836500D01*
X16275100Y3868300D01*
X16259400Y3889400D01*
X16231800Y3905300D01*
X16125600D01*
Y3587800D01*
X16255500D01*
X16283000Y3609000D01*
X16298800Y3640700D01*
X16306600Y3677800D01*
X16298800Y3714800D01*
X16275100Y3746500D01*
X16247600Y3757100D01*
X16125600D01*
G01X16531000Y3587800D02*
X16499500Y3593100D01*
X16472000Y3614300D01*
X16448300Y3646000D01*
X16432600Y3683000D01*
X16424700Y3725400D01*
Y3767700D01*
X16432600Y3810100D01*
X16448300Y3847100D01*
X16472000Y3878800D01*
X16499500Y3900000D01*
X16531000Y3905300D01*
X16562500Y3900000D01*
X16590000Y3878800D01*
X16613700Y3847100D01*
X16629400Y3810100D01*
X16637300Y3767700D01*
Y3725400D01*
X16629400Y3683000D01*
X16613700Y3646000D01*
X16590000Y3614300D01*
X16562500Y3593100D01*
X16531000Y3587800D01*
G01X16845900Y3905300D02*
Y3587800D01*
G01X16755400Y3905300D02*
X16936400D01*
G01X17160800D02*
Y3587800D01*
G01X17070300Y3905300D02*
X17251300D01*
G01X17475700Y3587800D02*
X17444200Y3593100D01*
X17416700Y3614300D01*
X17393000Y3646000D01*
X17377300Y3683000D01*
X17369400Y3725400D01*
Y3767700D01*
X17377300Y3810100D01*
X17393000Y3847100D01*
X17416700Y3878800D01*
X17444200Y3900000D01*
X17475700Y3905300D01*
X17507200Y3900000D01*
X17534700Y3878800D01*
X17558400Y3847100D01*
X17574100Y3810100D01*
X17582000Y3767700D01*
Y3725400D01*
X17574100Y3683000D01*
X17558400Y3646000D01*
X17534700Y3614300D01*
X17507200Y3593100D01*
X17475700Y3587800D01*
G01X17688200D02*
Y3905300D01*
X17790600Y3640700D01*
X17893000Y3905300D01*
Y3587800D01*
G01X10433800Y2302800D02*
Y2620300D01*
X10583400D01*
G01X10528300Y2466800D02*
X10433800D01*
G01X10776300Y2620300D02*
X10870700D01*
G01X10823500D02*
Y2302800D01*
G01X10776300D02*
X10870700D01*
G01X11047900D02*
Y2620300D01*
X11228900Y2302800D01*
Y2620300D01*
G01X11406100D02*
X11500500D01*
G01X11453300D02*
Y2302800D01*
G01X11406100D02*
X11500500D01*
G01X11685500Y2345100D02*
X11717000Y2318700D01*
X11752500Y2302800D01*
X11783900D01*
X11815400Y2318700D01*
X11839100Y2345100D01*
X11850900Y2382200D01*
X11843000Y2419200D01*
X11823300Y2451000D01*
X11787900Y2472100D01*
X11740600Y2482700D01*
X11713100Y2503900D01*
X11701300Y2540900D01*
X11709200Y2578000D01*
X11728800Y2604400D01*
X11756400Y2620300D01*
X11783900D01*
X11811500Y2609700D01*
X11835100Y2583300D01*
G01X12000400Y2302800D02*
Y2620300D01*
G01X12165800D02*
Y2302800D01*
G01Y2461500D02*
X12000400D01*
G01X12476700Y2302800D02*
X12319300D01*
Y2620300D01*
X12476700D01*
G01X12413700Y2466800D02*
X12319300D01*
G01X12626300Y2302800D02*
Y2620300D01*
X12705000D01*
X12736500Y2604400D01*
X12760100Y2583300D01*
X12779800Y2551500D01*
X12795600Y2514500D01*
X12799500Y2461500D01*
X12795600Y2408600D01*
X12779800Y2371600D01*
X12760100Y2339800D01*
X12736500Y2318700D01*
X12705000Y2302800D01*
X12626300D01*
G01X12909700Y2197000D02*
X13145900D01*
G01X13260000Y2345100D02*
X13291500Y2318700D01*
X13327000Y2302800D01*
X13358400D01*
X13389900Y2318700D01*
X13413600Y2345100D01*
X13425400Y2382200D01*
X13417500Y2419200D01*
X13397800Y2451000D01*
X13362400Y2472100D01*
X13315100Y2482700D01*
X13287600Y2503900D01*
X13275800Y2540900D01*
X13283700Y2578000D01*
X13303300Y2604400D01*
X13330900Y2620300D01*
X13358400D01*
X13386000Y2609700D01*
X13409600Y2583300D01*
G01X13610400Y2620300D02*
X13704800D01*
G01X13657600D02*
Y2302800D01*
G01X13610400D02*
X13704800D01*
G01X13897700Y2620300D02*
X14047300D01*
X13897700Y2302800D01*
X14047300D01*
G01X14366100D02*
X14208700D01*
Y2620300D01*
X14366100D01*
G01X14303100Y2466800D02*
X14208700D01*
G01X11681600Y461200D02*
X11705200Y424200D01*
X11736700Y403000D01*
X11772100Y397700D01*
X11803600Y403000D01*
X11835100Y429400D01*
X11854800Y461200D01*
X11858700Y492900D01*
X11850900Y530000D01*
X11823300Y556400D01*
X11795800Y567000D01*
X11760300D01*
G01X11795800D02*
X11819400Y582900D01*
X11839100Y609400D01*
X11846900Y641100D01*
X11839100Y672900D01*
X11819400Y699300D01*
X11783900Y715200D01*
X11748500Y709900D01*
X11713100Y688700D01*
G01X12083100Y387100D02*
X12075200Y392400D01*
Y403000D01*
X12083100Y408300D01*
X12091000Y403000D01*
Y392400D01*
X12083100Y387100D01*
G01X12398000Y397700D02*
Y715200D01*
X12350800Y651700D01*
G01Y397700D02*
X12445200D01*
G01X12705000D02*
X12712900Y466500D01*
X12724700Y524700D01*
X12740500Y577600D01*
X12760100Y635800D01*
X12791600Y715200D01*
X12634200D01*
G01X12941200Y445300D02*
X12964800Y418900D01*
X12992400Y403000D01*
X13027800Y397700D01*
X13063200Y408300D01*
X13090800Y429400D01*
X13110500Y466500D01*
X13114400Y508800D01*
X13106500Y551200D01*
X13086800Y577600D01*
X13059300Y598800D01*
X13031700Y604100D01*
X13004200Y598800D01*
X12968800Y577600D01*
X12980600Y715200D01*
X13086800D01*
G01X11768200Y1032700D02*
Y1350200D01*
X11721000Y1286700D01*
G01Y1032700D02*
X11815400D01*
G01X12083100Y1022100D02*
X12075200Y1027400D01*
Y1038000D01*
X12083100Y1043300D01*
X12091000Y1038000D01*
Y1027400D01*
X12083100Y1022100D01*
G01X12398000Y1350200D02*
X12366500Y1339600D01*
X12342900Y1313200D01*
X12327100Y1281400D01*
X12315300Y1239100D01*
X12311400Y1191400D01*
X12315300Y1143800D01*
X12327100Y1101500D01*
X12342900Y1069700D01*
X12366500Y1043300D01*
X12398000Y1032700D01*
X12429500Y1043300D01*
X12453100Y1069700D01*
X12468900Y1101500D01*
X12480700Y1143800D01*
X12484600Y1191400D01*
X12480700Y1239100D01*
X12468900Y1281400D01*
X12453100Y1313200D01*
X12429500Y1339600D01*
X12398000Y1350200D01*
G01X12638100Y1165000D02*
X12665700Y1202000D01*
X12689300Y1223200D01*
X12720800Y1233800D01*
X12748300Y1223200D01*
X12768000Y1202000D01*
X12783800Y1170300D01*
X12787700Y1133200D01*
X12783800Y1101500D01*
X12768000Y1069700D01*
X12744400Y1043300D01*
X12716800Y1032700D01*
X12685300Y1043300D01*
X12657800Y1075000D01*
X12642000Y1122700D01*
X12638100Y1175600D01*
X12646000Y1244400D01*
X12657800Y1281400D01*
X12677500Y1318400D01*
X12705000Y1344900D01*
X12732600Y1350200D01*
X12760100Y1339600D01*
X12779800Y1313200D01*
G01X13019900Y1032700D02*
X13027800Y1101500D01*
X13039600Y1159700D01*
X13055400Y1212600D01*
X13075000Y1270800D01*
X13106500Y1350200D01*
X12949100D01*
G01X11768200Y1985300D02*
X11736700Y1974700D01*
X11713100Y1948300D01*
X11697300Y1916500D01*
X11685500Y1874200D01*
X11681600Y1826500D01*
X11685500Y1778900D01*
X11697300Y1736600D01*
X11713100Y1704800D01*
X11736700Y1678400D01*
X11768200Y1667800D01*
X11799700Y1678400D01*
X11823300Y1704800D01*
X11839100Y1736600D01*
X11850900Y1778900D01*
X11854800Y1826500D01*
X11850900Y1874200D01*
X11839100Y1916500D01*
X11823300Y1948300D01*
X11799700Y1974700D01*
X11768200Y1985300D01*
G01X12083100Y1657200D02*
X12075200Y1662500D01*
Y1673100D01*
X12083100Y1678400D01*
X12091000Y1673100D01*
Y1662500D01*
X12083100Y1657200D01*
G01X12331100Y1704800D02*
X12358600Y1678400D01*
X12390100Y1667800D01*
X12421600Y1678400D01*
X12449200Y1710100D01*
X12468900Y1757800D01*
X12476700Y1805400D01*
Y1863600D01*
X12468900Y1911200D01*
X12449200Y1953500D01*
X12425600Y1974700D01*
X12398000Y1985300D01*
X12366500Y1974700D01*
X12342900Y1953500D01*
X12327100Y1921800D01*
X12319300Y1879500D01*
X12327100Y1842400D01*
X12346800Y1805400D01*
X12370400Y1784200D01*
X12398000Y1778900D01*
X12429500Y1789500D01*
X12453100Y1816000D01*
X12476700Y1863600D01*
G01X12712900Y1667800D02*
Y1985300D01*
X12665700Y1921800D01*
G01Y1667800D02*
X12760100D01*
G01X13075000D02*
Y1985300D01*
X12929400Y1757800D01*
X13126200D01*
G01X15062800Y397700D02*
Y715200D01*
X15243800Y397700D01*
Y715200D01*
G01X15468200Y397700D02*
X15436700Y403000D01*
X15409200Y424200D01*
X15385500Y455900D01*
X15369800Y492900D01*
X15361900Y535300D01*
Y577600D01*
X15369800Y620000D01*
X15385500Y657000D01*
X15409200Y688700D01*
X15436700Y709900D01*
X15468200Y715200D01*
X15499700Y709900D01*
X15527200Y688700D01*
X15550900Y657000D01*
X15566600Y620000D01*
X15574500Y577600D01*
Y535300D01*
X15566600Y492900D01*
X15550900Y455900D01*
X15527200Y424200D01*
X15499700Y403000D01*
X15468200Y397700D01*
G01X15692600D02*
Y715200D01*
X15873600Y397700D01*
Y715200D01*
G01X16046800Y503500D02*
X16149200D01*
G01X16334200Y397700D02*
Y715200D01*
X16428600D01*
X16460100Y699300D01*
X16483800Y662300D01*
X16491600Y620000D01*
X16483800Y577600D01*
X16464100Y545900D01*
X16428600Y530000D01*
X16334200D01*
G01X16649100Y715200D02*
Y397700D01*
X16806500D01*
G01X16944300D02*
X17042700Y715200D01*
X17141100Y397700D01*
G01X17105700Y508800D02*
X16979700D01*
G01X17357600Y715200D02*
Y397700D01*
G01X17267100Y715200D02*
X17448100D01*
G01X17751200Y397700D02*
X17593800D01*
Y715200D01*
X17751200D01*
G01X17688200Y561700D02*
X17593800D01*
G01X17900800Y397700D02*
Y715200D01*
X17979500D01*
X18011000Y699300D01*
X18034600Y678200D01*
X18054300Y646400D01*
X18070100Y609400D01*
X18074000Y556400D01*
X18070100Y503500D01*
X18054300Y466500D01*
X18034600Y434700D01*
X18011000Y413600D01*
X17979500Y397700D01*
X17900800D01*
G01X14956600Y2779000D02*
Y239000D01*
G01X15704400Y1032700D02*
Y1350200D01*
X15798800D01*
X15830300Y1334300D01*
X15854000Y1297300D01*
X15861800Y1255000D01*
X15854000Y1212600D01*
X15834300Y1180900D01*
X15798800Y1165000D01*
X15704400D01*
G01X16019300Y1350200D02*
Y1032700D01*
X16176700D01*
G01X16314500D02*
X16412900Y1350200D01*
X16511300Y1032700D01*
G01X16475900Y1143800D02*
X16349900D01*
G01X16727800Y1350200D02*
Y1032700D01*
G01X16637300Y1350200D02*
X16818300D01*
G01X17121400Y1032700D02*
X16964000D01*
Y1350200D01*
X17121400D01*
G01X17058400Y1196700D02*
X16964000D01*
G01X17271000Y1032700D02*
Y1350200D01*
X17349700D01*
X17381200Y1334300D01*
X17404800Y1313200D01*
X17424500Y1281400D01*
X17440300Y1244400D01*
X17444200Y1191400D01*
X17440300Y1138500D01*
X17424500Y1101500D01*
X17404800Y1069700D01*
X17381200Y1048600D01*
X17349700Y1032700D01*
X17271000D01*
G01X15704400Y1667800D02*
Y1985300D01*
X15798800D01*
X15830300Y1969400D01*
X15854000Y1932400D01*
X15861800Y1890100D01*
X15854000Y1847700D01*
X15834300Y1816000D01*
X15798800Y1800100D01*
X15704400D01*
G01X16019300Y1985300D02*
Y1667800D01*
X16176700D01*
G01X16314500D02*
X16412900Y1985300D01*
X16511300Y1667800D01*
G01X16475900Y1778900D02*
X16349900D01*
G01X16727800Y1985300D02*
Y1667800D01*
G01X16637300Y1985300D02*
X16818300D01*
G01X17121400Y1667800D02*
X16964000D01*
Y1985300D01*
X17121400D01*
G01X17058400Y1831800D02*
X16964000D01*
G01X17271000Y1667800D02*
Y1985300D01*
X17349700D01*
X17381200Y1969400D01*
X17404800Y1948300D01*
X17424500Y1916500D01*
X17440300Y1879500D01*
X17444200Y1826500D01*
X17440300Y1773600D01*
X17424500Y1736600D01*
X17404800Y1704800D01*
X17381200Y1683700D01*
X17349700Y1667800D01*
X17271000D01*
G01X15704400Y2302800D02*
Y2620300D01*
X15798800D01*
X15830300Y2604400D01*
X15854000Y2567400D01*
X15861800Y2525100D01*
X15854000Y2482700D01*
X15834300Y2451000D01*
X15798800Y2435100D01*
X15704400D01*
G01X16019300Y2620300D02*
Y2302800D01*
X16176700D01*
G01X16314500D02*
X16412900Y2620300D01*
X16511300Y2302800D01*
G01X16475900Y2413900D02*
X16349900D01*
G01X16727800Y2620300D02*
Y2302800D01*
G01X16637300Y2620300D02*
X16818300D01*
G01X17121400Y2302800D02*
X16964000D01*
Y2620300D01*
X17121400D01*
G01X17058400Y2466800D02*
X16964000D01*
G01X17271000Y2302800D02*
Y2620300D01*
X17349700D01*
X17381200Y2604400D01*
X17404800Y2583300D01*
X17424500Y2551500D01*
X17440300Y2514500D01*
X17444200Y2461500D01*
X17440300Y2408600D01*
X17424500Y2371600D01*
X17404800Y2339800D01*
X17381200Y2318700D01*
X17349700Y2302800D01*
X17271000D01*
G01X18184300Y2779000D02*
Y239000D01*
G01X19215600Y397700D02*
Y715200D01*
X19070000Y487700D01*
X19266800D01*
G01X19215600Y1032700D02*
Y1350200D01*
X19070000Y1122700D01*
X19266800D01*
G01X19215600Y1667800D02*
Y1985300D01*
X19070000Y1757800D01*
X19266800D01*
G01X18853500Y2302800D02*
X18822000Y2308100D01*
X18794500Y2329300D01*
X18770800Y2361000D01*
X18755100Y2398000D01*
X18747200Y2440400D01*
Y2482700D01*
X18755100Y2525100D01*
X18770800Y2562100D01*
X18794500Y2593800D01*
X18822000Y2615000D01*
X18853500Y2620300D01*
X18885000Y2615000D01*
X18912500Y2593800D01*
X18936200Y2562100D01*
X18951900Y2525100D01*
X18959800Y2482700D01*
Y2440400D01*
X18951900Y2398000D01*
X18936200Y2361000D01*
X18912500Y2329300D01*
X18885000Y2308100D01*
X18853500Y2302800D01*
G01X18885000Y2387500D02*
X18932200Y2302800D01*
G01X19168400Y2620300D02*
Y2302800D01*
G01X19077900Y2620300D02*
X19258900D01*
G01X19483300Y2302800D02*
Y2445700D01*
X19404600Y2620300D01*
G01X19562000D02*
X19483300Y2445700D01*
M02*
