G04 ================== begin FILE IDENTIFICATION RECORD ==================*
G04 Layout Name:  C:/Users/user/Desktop/workspace/ex2_rlc/allegro/ex2_rlc.brd*
G04 Film Name:    TOP*
G04 File Format:  Gerber RS274X*
G04 File Origin:  Cadence Allegro 17.2-S038*
G04 Origin Date:  Thu Jul 11 11:36:05 2019*
G04 *
G04 Layer:  ETCH/TOP*
G04 Layer:  PIN/TOP*
G04 Layer:  VIA CLASS/TOP*
G04 *
G04 Offset:    (0.000 0.000)*
G04 Mirror:    No*
G04 Mode:      Positive*
G04 Rotation:  0*
G04 FullContactRelief:  No*
G04 UndefLineWidth:     0.000*
G04 ================== end FILE IDENTIFICATION RECORD ====================*
%FSLAX25Y25*MOMM*%
%IR0*IPPOS*OFA0.00000B0.00000*MIA0B0*SFA1.00000B1.00000*%
%ADD11C,1.524*%
%ADD12C,1.651*%
%ADD13R,1.27X1.6*%
%ADD10C,.635*%
%ADD14C,.254*%
%ADD15C,.308*%
%ADD16C,1.782*%
G75*
%LPD*%
G75*
G36*
G01X1543900Y3644900D02*
X1612900D01*
X2171700Y3086100D01*
Y698500D01*
X1773300Y300100D01*
X762200D01*
Y762200D01*
X300100D01*
Y3644900D01*
X1457600D01*
Y3213600D01*
G03X1539600I41000J-93200D01*
G01Y3640600D01*
X1543900Y3644900D01*
G37*
G36*
G01X762200Y4700000D02*
X6222800D01*
Y4254300D01*
X6700000D01*
Y825700D01*
X6222800D01*
Y317300D01*
X6700000D01*
Y300000D01*
X1834000D01*
G02X1826800Y317400I20J10198D01*
G01X2197300Y687900D01*
Y975000D01*
X2693900D01*
G03Y1057000I100100J41000D01*
G01X2197300D01*
Y3096700D01*
X1623500Y3670500D01*
X1594100D01*
G02X1586900Y3687900I17J10197D01*
G01X1668000Y3769000D01*
X2700800D01*
G03X2835000Y3903200I93200J41000D01*
G01Y4174000D01*
X2859600Y4198600D01*
X4510600D01*
X4530100Y4218200D01*
G03X4466700Y4293100I41918J99765D01*
G02X4456800Y4280600I-9932J-2304D01*
G01X2825600D01*
X2753000Y4208000D01*
Y3903200D01*
G03X2700800Y3851000I41000J-93200D01*
G01X1634000D01*
X1457600Y3674600D01*
Y3670500D01*
X300000D01*
Y4228900D01*
X762200D01*
Y4700000D01*
G37*
%LPC*%
G75*
G36*
G01X5079800Y1726600D02*
Y1858000D01*
G02X5105400Y1883600I25600J0D01*
G01X5232400D01*
G02X5258000Y1858000I0J-25600D01*
G01Y1698000D01*
G02X5232400Y1672400I-25600J0D01*
G01X5134000D01*
X5103300Y1641700D01*
X5086800D01*
X5054800Y1609700D01*
Y1317600D01*
X4714900Y977700D01*
X3911200D01*
G02Y1054300I-101200J38300D01*
G01X4683100D01*
X4978200Y1349400D01*
Y1641500D01*
X5055000Y1718300D01*
X5071500D01*
X5079800Y1726600D01*
G37*
G36*
G01X3032100Y3263700D02*
X2833700Y3462200D01*
X2830600Y3461000D01*
G02X2889000Y3519400I-36600J95000D01*
G01X2887800Y3516300D01*
X3063900Y3340300D01*
X4470800D01*
G02X4672000Y3260600I101212J-38305D01*
G01X4670700Y3257500D01*
X5537400Y2390800D01*
Y1883600D01*
X5562600D01*
G02X5588200Y1858000I0J-25600D01*
G01Y1698000D01*
G02X5562600Y1672400I-25600J0D01*
G01X5435600D01*
G02X5410000Y1698000I0J25600D01*
G01Y1858000D01*
G02X5435600Y1883600I25600J0D01*
G01X5460800D01*
Y2359000D01*
X4616500Y3203300D01*
X4613400Y3202000D01*
G02X4470800Y3263700I-41387J99985D01*
G01X3032100D01*
G37*
G54D16*
X1498600Y2866400D03*
%LPD*%
G75*
G54D10*
X508000Y508000D03*
Y4483100D03*
X6477000Y571500D03*
Y4508500D03*
G54D11*
X1498600Y3120400D03*
Y2866400D03*
X2794000Y3810000D03*
Y3556000D03*
G54D12*
Y1016000D03*
X3810000D03*
X4572000Y3302000D03*
Y4318000D03*
G54D13*
X5499100Y1778000D03*
X5168900D03*
G54D14*
G01X4572000Y3302000D02*
X3048000D01*
X2794000Y3556000D01*
G01X5168900Y1778000D02*
Y1761500D01*
X5087400Y1680000D01*
X5070900D01*
X5016500Y1625600D01*
Y1333500D01*
X4699000Y1016000D01*
X3810000D01*
G01X5499100Y1778000D02*
Y2374900D01*
X4572000Y3302000D01*
G54D15*
G01X2794000Y1016000D02*
X1841500D01*
G01D02*
X1498600Y1358900D01*
G01D02*
Y2866400D01*
G01X2794000Y3810000D02*
X1651000D01*
X1498600Y3657600D01*
Y3120400D01*
G01Y2866400D02*
Y2960600D01*
G01X1404400Y2866400D02*
X1498600D01*
G01D02*
X1592800D01*
G01X2794000Y3810000D02*
Y4191000D01*
X2842600Y4239600D01*
X4493600D01*
X4572000Y4318000D01*
M02*
